<?xml version="1.0" encoding="UTF-8"?>
<svg xmlns="http://www.w3.org/2000/svg" xmlns:xlink="http://www.w3.org/1999/xlink" viewBox="0 0 48 48" width="48px" height="48px">
<g id="surface50265">
<path style=" stroke:none;fill-rule:nonzero;fill:rgb(100%,80.000001%,0%);fill-opacity:1;" d="M 10 2 C 8.527344 2 7.25 2.808594 6.554688 4 L 40 4 C 42.207031 4 44 5.792969 44 8 L 44 41.445312 C 45.191406 40.75 46 39.472656 46 38 L 46 6 C 46 3.792969 44.207031 2 42 2 Z M 6 6 C 3.792969 6 2 7.792969 2 10 L 2 42 C 2 44.207031 3.792969 46 6 46 L 38 46 C 40.207031 46 42 44.207031 42 42 L 42 10 C 42 7.792969 40.207031 6 38 6 Z M 28.835938 16.011719 C 29.128906 15.960938 29.425781 16.046875 29.648438 16.234375 C 29.875 16.425781 30 16.707031 30 17 L 30 32 C 30 33.160156 28.738281 34 27 34 C 25.261719 34 24 33.160156 24 32 C 24 30.84375 25.261719 30 27 30 C 27.359375 30 27.6875 30.042969 28 30.109375 L 28 22.179688 L 18 23.847656 L 18 34 C 18 35.15625 16.738281 36 15 36 C 13.261719 36 12 35.15625 12 34 C 12 32.839844 13.261719 32 15 32 C 15.359375 32 15.6875 32.042969 16 32.109375 L 16 19 C 16 18.511719 16.351562 18.09375 16.835938 18.011719 Z M 28 18.179688 L 18 19.847656 L 18 21.820312 L 28 20.152344 Z M 28 18.179688 "/>
</g>
</svg>
