<svg width="26" height="22" viewBox="0 0 26 22" fill="none" xmlns="http://www.w3.org/2000/svg">
<path d="M7.87123 17.6664C7.87123 19.2141 8.76345 20.6442 10.2113 21.4182C11.6596 22.1919 13.4441 22.1919 14.8923 21.4182C16.3406 20.6442 17.2324 19.2142 17.2324 17.6664L17.1472 10.1194H23.1729L23.1733 10.1197C23.6851 10.1197 24.1761 9.93162 24.5381 9.59662C24.9004 9.26129 25.1037 8.80687 25.1033 8.33316C25.103 7.85911 24.8994 7.40503 24.537 7.07003L18.4993 1.48227C18.1377 1.14694 17.6471 0.958497 17.1352 0.958497C16.6234 0.958169 16.1324 1.14628 15.7704 1.48129C15.4084 1.81629 15.2051 2.2707 15.2055 2.74475V14.1047C14.2655 13.5018 13.1191 13.2387 11.9837 13.3653C10.8483 13.4923 9.80261 14 9.04472 14.7927C8.28648 15.5854 7.86902 16.6077 7.8711 17.6661L7.87123 17.6664ZM23.1729 8.24364H17.1271L17.0663 2.80805L23.1729 8.24364ZM15.2052 17.6664C15.2052 18.3178 14.9256 18.9423 14.4282 19.4029C13.9305 19.8635 13.256 20.1223 12.5522 20.1223C11.8484 20.1226 11.1737 19.8642 10.6759 19.4036C10.1782 18.9433 9.89824 18.3191 9.89789 17.6677C9.89754 17.0163 10.1768 16.3918 10.6742 15.9308C11.1715 15.4702 11.846 15.2111 12.5498 15.2108C13.2536 15.2111 13.9284 15.4702 14.4261 15.9305C14.9239 16.3908 15.2042 17.0153 15.2053 17.6664L15.2052 17.6664Z" fill="white"/>
<path d="M1.907 8.87835H4.89051V11.6402C4.89051 12.1584 5.3444 12.5781 5.90432 12.5781C6.4639 12.5781 6.91777 12.1584 6.91777 11.6402V8.87835H9.903C10.4626 8.87835 10.9164 8.45829 10.9164 7.94043C10.9164 7.42222 10.4626 7.0025 9.903 7.0025H6.91777V4.24066C6.91777 3.72245 6.46388 3.30273 5.90432 3.30273C5.34439 3.30273 4.89051 3.72247 4.89051 4.24066V7.0025H1.907C1.34707 7.0025 0.893555 7.42224 0.893555 7.94043C0.893555 8.45831 1.34708 8.87835 1.907 8.87835Z" fill="white"/>
</svg>
