<svg width="24" height="24" viewBox="0 0 24 24" fill="none" xmlns="http://www.w3.org/2000/svg">
<path fill-rule="evenodd" clip-rule="evenodd" d="M12 24C18.6276 24 24 18.6274 24 12C24 5.37256 18.6274 0 12 0C5.37256 0 -1.90735e-06 5.37256 -1.90735e-06 12C-1.90735e-06 18.6274 5.37256 24 12 24ZM11.3626 18.0001H12.3743C12.4968 18.0001 12.599 17.9117 12.6202 17.7949L12.6243 17.7501V16.5502C13.2602 16.4044 13.782 16.1154 14.1893 15.6828C14.6269 15.2188 14.8459 14.6784 14.8459 14.0624C14.8459 13.8793 14.827 13.7051 14.7888 13.5401C14.7509 13.3748 14.7041 13.2264 14.6482 13.0947C14.5925 12.963 14.5133 12.8335 14.4105 12.7064C14.3078 12.579 14.2105 12.4696 14.1189 12.3781C14.0274 12.2865 13.908 12.1918 13.7608 12.0936L13.594 11.9849C13.5157 11.9349 13.4451 11.8919 13.3822 11.8557C13.3191 11.8196 13.2439 11.7802 13.1558 11.7378L12.9635 11.6482L12.6642 11.5174L12.1395 11.3033L11.8356 11.183L11.6809 11.119L11.5371 11.0556L11.3006 10.9419L11.1615 10.8713C10.9829 10.7798 10.8524 10.6963 10.7697 10.6202C10.687 10.5444 10.6121 10.4506 10.5453 10.3389C10.4784 10.2273 10.4448 10.1091 10.4448 9.98422C10.4448 9.6315 10.582 9.35915 10.8567 9.16715C11.1313 8.97515 11.4496 8.87929 11.8112 8.87929C11.9765 8.87929 12.1418 8.89709 12.3071 8.93267C12.8392 9.03915 13.3395 9.28252 13.8078 9.66279L13.9347 9.76984L13.9482 9.78333C13.9884 9.8324 14.042 9.85249 14.1089 9.8436C14.166 9.83642 14.2105 9.81777 14.2418 9.78792L14.263 9.76324L14.953 8.85918C15.0201 8.76993 15.0155 8.67837 14.9398 8.58452L14.8611 8.50158L14.8097 8.45193L14.7363 8.38851C14.7073 8.3644 14.6731 8.33742 14.6347 8.30728L14.511 8.21286C14.3592 8.09892 14.1939 7.99187 14.0151 7.89142C13.8365 7.79097 13.6098 7.69167 13.3352 7.59352C13.163 7.53182 12.9865 7.4816 12.8059 7.44285L12.6243 7.40783L12.6237 6.23083C12.6151 6.11603 12.5287 6.02247 12.4171 6.00324L12.3743 5.99951H11.3626C11.3 5.99951 11.2487 6.0196 11.2085 6.05978L11.1792 6.09249C11.1531 6.12464 11.135 6.16338 11.1276 6.20586L11.1238 6.24948L11.1235 7.38997C10.4247 7.50879 9.85558 7.81214 9.41652 8.29976C8.97224 8.7931 8.75011 9.38147 8.75011 10.0645C8.75011 10.2875 8.7791 10.4976 8.83707 10.6939C8.89504 10.8902 8.96536 11.061 9.04801 11.2062C9.13067 11.3514 9.24891 11.4929 9.40302 11.6315C9.55714 11.7699 9.69576 11.8815 9.81831 11.9662C9.94114 12.0511 10.1099 12.1458 10.3243 12.2509L10.5266 12.3482C10.5889 12.3774 10.646 12.4038 10.6982 12.4271L10.8334 12.4853L11.1436 12.6079L11.5948 12.7807L11.7974 12.861L11.9696 12.9336L12.1203 13.0011L12.2911 13.0806C12.438 13.1509 12.5493 13.2135 12.6251 13.2688C12.7078 13.3291 12.7959 13.4026 12.8897 13.4898C12.9836 13.5768 13.0496 13.6695 13.0875 13.7676C13.1254 13.8658 13.1443 13.9731 13.1443 14.0891C13.1443 14.3927 13.0103 14.6404 12.7425 14.8324C12.4745 15.0244 12.1283 15.1202 11.7041 15.1202C11.5164 15.1202 11.3256 15.0947 11.1313 15.0433C10.937 14.992 10.7708 14.934 10.6322 14.8691C10.4939 14.8045 10.3633 14.7331 10.2405 14.655L10.1314 14.5844C10.0987 14.5629 10.07 14.5434 10.0453 14.5259L9.97929 14.4774L9.89577 14.4096L9.882 14.397C9.82402 14.3525 9.76375 14.3367 9.70119 14.3502C9.64752 14.3537 9.6039 14.3775 9.57032 14.4208L9.54708 14.4573L8.99461 15.4529C8.95271 15.5355 8.96706 15.6145 9.03795 15.6897L9.10052 15.7491L9.14787 15.7915L9.23397 15.8587L9.39985 15.9775C9.53359 16.0714 9.67537 16.1549 9.82518 16.2286C9.97471 16.3024 10.169 16.377 10.4078 16.4531C10.5671 16.5036 10.7301 16.5432 10.8962 16.5719L11.0636 16.5971L11.1238 16.6043V17.75C11.1238 17.8002 11.1385 17.8467 11.164 17.8861L11.2005 17.9311L11.2085 17.9397C11.2386 17.9699 11.2751 17.9885 11.3176 17.9963L11.3626 18.0001Z" fill="#FFCC00"/>
</svg>
