<svg width="23" height="24" viewBox="0 0 23 24" fill="none" xmlns="http://www.w3.org/2000/svg">
<path d="M22.9879 12.2245C22.9879 11.2413 22.9097 10.5237 22.7403 9.77963H11.7291V14.2176H18.1924C18.0622 15.3205 17.3585 16.9815 15.7948 18.0976L15.7728 18.2461L19.2544 20.9963L19.4956 21.0209C21.7108 18.9347 22.9879 15.8653 22.9879 12.2245Z" fill="#4285F4"/>
<path d="M11.729 23.9176C14.8955 23.9176 17.5538 22.8545 19.4955 21.0209L15.7947 18.0976C14.8043 18.8018 13.4751 19.2934 11.729 19.2934C8.62767 19.2934 5.99543 17.2074 5.0571 14.324L4.91957 14.3359L1.29942 17.1927L1.25208 17.3269C3.18064 21.2334 7.14207 23.9176 11.729 23.9176Z" fill="#34A853"/>
<path d="M5.0572 14.324C4.80961 13.5799 4.66633 12.7826 4.66633 11.9588C4.66633 11.1349 4.80961 10.3377 5.04417 9.59359L5.03761 9.43511L1.37209 6.53239L1.25217 6.59056C0.45731 8.21166 0.0012207 10.0321 0.0012207 11.9588C0.0012207 13.8855 0.45731 15.7058 1.25217 17.3269L5.0572 14.324Z" fill="#FBBC05"/>
<path d="M11.729 4.62403C13.9312 4.62403 15.4167 5.59402 16.2638 6.40461L19.5736 3.10928C17.5409 1.1826 14.8955 0 11.729 0C7.14207 0 3.18064 2.68406 1.25208 6.59057L5.04408 9.59359C5.99543 6.7102 8.62767 4.62403 11.729 4.62403Z" fill="#EB4335"/>
</svg>
