<svg width="27" height="27" viewBox="0 0 27 27" fill="none" xmlns="http://www.w3.org/2000/svg">
<path d="M11.25 13.775H4.5C4.35069 13.775 4.225 13.6493 4.225 13.5V4.5C4.225 4.35069 4.35069 4.225 4.5 4.225H11.25C11.3993 4.225 11.525 4.35069 11.525 4.5V13.5C11.525 13.6493 11.3993 13.775 11.25 13.775ZM11.25 22.775H4.5C4.35069 22.775 4.225 22.6493 4.225 22.5V18C4.225 17.8507 4.35069 17.725 4.5 17.725H11.25C11.3993 17.725 11.525 17.8507 11.525 18V22.5C11.525 22.6493 11.3993 22.775 11.25 22.775ZM22.5 22.775H15.75C15.6007 22.775 15.475 22.6493 15.475 22.5V13.5C15.475 13.3507 15.6007 13.225 15.75 13.225H22.5C22.6493 13.225 22.775 13.3507 22.775 13.5V22.5C22.775 22.6493 22.6493 22.775 22.5 22.775ZM15.475 9V4.5C15.475 4.35069 15.6007 4.225 15.75 4.225H22.5C22.6493 4.225 22.775 4.35069 22.775 4.5V9C22.775 9.14931 22.6493 9.275 22.5 9.275H15.75C15.6007 9.275 15.475 9.14931 15.475 9Z" stroke="white" stroke-width="1.7"/>
</svg>
