<svg width="40" height="40" viewBox="0 0 40 40" fill="none" xmlns="http://www.w3.org/2000/svg">
<path d="M39.5586 8.09446L39.5525 8.03503C39.3499 6.09055 38.4844 4.275 37.1016 2.89338C35.7185 1.51168 33.9024 0.647835 31.9579 0.44698C29.1072 0.150112 24.4093 0 20 0C15.5907 0 10.8928 0.150112 8.04213 0.44698C6.09763 0.64787 4.28155 1.51168 2.89841 2.89338C1.51562 4.27507 0.650046 6.09062 0.447546 8.03503L0.441408 8.09446C0.194479 10.4586 0 10.838 0 15.8236C0 20.8097 0.194479 21.6143 0.441408 23.9793L0.447546 24.0378C0.650111 25.9823 1.51562 27.7979 2.89841 29.1795C4.28148 30.5612 6.09763 31.425 8.04213 31.6262C9.6147 31.7902 11.75 31.9091 14.0882 31.9833L18.6256 39.1889H18.6259C18.9439 39.6937 19.4989 40 20.0957 40C20.6925 40 21.2475 39.6936 21.5656 39.1889L26.1069 31.9776C28.3686 31.8995 30.4289 31.7862 31.9567 31.6269H31.957C33.9018 31.426 35.7182 30.5622 37.1013 29.1805C38.4844 27.7988 39.3499 25.9829 39.5525 24.0385L39.5586 23.9791C39.8055 21.615 40 20.8104 40 15.8249C40 10.8389 39.8055 10.4601 39.5586 8.09575L39.5586 8.09446ZM19.995 27.8949C19.2922 27.8935 18.6184 27.6134 18.1219 27.1154C17.6256 26.6176 17.3474 25.9432 17.3482 25.2401C17.349 24.5373 17.6289 23.8635 18.1264 23.3668C18.6239 22.8701 19.2983 22.5914 20.0014 22.5916C20.7043 22.5922 21.3784 22.8718 21.8753 23.369C22.3722 23.8662 22.6512 24.5402 22.6512 25.2434C22.6501 25.9471 22.3697 26.6214 21.8716 27.1184C21.3736 27.6156 20.6986 27.8948 19.995 27.8948V27.8949ZM22.567 18.7629C22.5226 19.1728 22.3374 19.5547 22.0427 19.8432C21.7445 20.1342 21.3566 20.3156 20.942 20.358H20.9295C20.6703 20.3881 20.4094 20.4032 20.1482 20.4035C19.8351 20.4049 19.5221 20.3898 19.2107 20.358H19.1973C18.7821 20.3164 18.3929 20.1348 18.0944 19.8432C17.7997 19.555 17.6142 19.1733 17.5701 18.7635C17.5059 18.165 17.4741 14.0096 17.4741 13.0838C17.4741 12.158 17.5062 7.99096 17.5701 7.39332C17.6144 6.98345 17.7997 6.60147 18.0944 6.31298C18.3923 6.02225 18.7802 5.84088 19.1942 5.79876H19.2076C19.519 5.76779 19.8323 5.7583 20.1451 5.77086C20.4057 5.7583 20.6671 5.76779 20.9264 5.79876H20.9389C21.3533 5.84089 21.7414 6.02197 22.0397 6.31298C22.334 6.60176 22.5193 6.98345 22.5639 7.39332C22.6273 7.99097 22.6599 12.1589 22.6599 13.0838C22.6599 14.009 22.6303 18.1644 22.567 18.7629V18.7629Z" fill="#B574CC"/>
</svg>
