<?xml version="1.0" encoding="UTF-8"?>
<svg xmlns="http://www.w3.org/2000/svg" xmlns:xlink="http://www.w3.org/1999/xlink" viewBox="0 0 60 60" width="60px" height="60px">
<g id="surface3978042">
<path style=" stroke:none;fill-rule:nonzero;fill:rgb(90.588236%,29.803923%,23.529412%);fill-opacity:1;" d="M 10 6 C 7.792969 6 6 7.792969 6 10 L 6 50 C 6 52.207031 7.792969 54 10 54 L 38 54 C 40.207031 54 42 52.207031 42 50 L 42 32 L 26 32 C 24.894531 32 24 31.105469 24 30 C 24 28.894531 24.894531 28 26 28 L 42 28 L 42 10 C 42 7.792969 40.207031 6 38 6 Z M 42 28 L 42 32 L 53.171875 32 L 48.585938 36.585938 C 48.0625 37.085938 47.851562 37.832031 48.035156 38.535156 C 48.21875 39.234375 48.765625 39.78125 49.464844 39.964844 C 50.167969 40.148438 50.914062 39.9375 51.414062 39.414062 L 59.414062 31.414062 C 60.195312 30.632812 60.195312 29.367188 59.414062 28.585938 L 51.414062 20.585938 C 51.039062 20.199219 50.519531 19.980469 49.980469 19.980469 C 49.167969 19.980469 48.433594 20.472656 48.128906 21.226562 C 47.820312 21.980469 48.003906 22.847656 48.585938 23.414062 L 53.171875 28 Z M 42 28 "/>
</g>
</svg>
