<svg width="26" height="21" viewBox="0 0 26 21" fill="none" xmlns="http://www.w3.org/2000/svg">
<path d="M16.0323 20.5447H4.81922C3.62961 20.5447 2.48876 20.0743 1.64777 19.237C0.806536 18.3999 0.333984 17.2644 0.333984 16.0803V4.91916C0.333984 3.73506 0.806536 2.59949 1.64777 1.76241C2.48876 0.925073 3.62961 0.454712 4.81922 0.454712H16.0323C17.2219 0.454712 18.3628 0.925073 19.2038 1.76241C20.045 2.59949 20.5176 3.73506 20.5176 4.91916V16.0803C20.5176 17.2644 20.045 18.3999 19.2038 19.237C18.3628 20.0743 17.2219 20.5447 16.0323 20.5447ZM4.81922 2.68693C4.22453 2.68693 3.65409 2.92211 3.23337 3.34066C2.81288 3.75945 2.5766 4.32723 2.5766 4.91916V16.0803C2.5766 16.6722 2.81288 17.24 3.23337 17.6588C3.65411 18.0773 4.22454 18.3125 4.81922 18.3125H16.0323C16.627 18.3125 17.1975 18.0773 17.6182 17.6588C18.0387 17.24 18.2749 16.6722 18.2749 16.0803V4.91916C18.2749 4.32722 18.0387 3.75942 17.6182 3.34066C17.1974 2.92211 16.627 2.68693 16.0323 2.68693H4.81922Z" fill="white"/>
<path d="M22.0547 20.1765C21.716 20.1777 21.3949 20.0267 21.1811 19.7656C20.9671 19.5045 20.883 19.161 20.9526 18.8314C21.022 18.5016 21.2375 18.2205 21.5388 18.0668C21.9065 17.88 22.2154 17.5955 22.4309 17.2449C22.6466 16.8944 22.7607 16.4913 22.761 16.0802V4.91912C22.7607 4.50806 22.6466 4.10494 22.4309 3.75441C22.2154 3.40388 21.9065 3.11938 21.5388 2.93251C21.1821 2.7489 20.9511 2.39015 20.9323 1.99102C20.9138 1.59216 21.1103 1.21351 21.4482 0.997747C21.7861 0.782248 22.2138 0.762318 22.5703 0.945679C23.3039 1.32137 23.9189 1.89087 24.3481 2.59191C24.7776 3.29296 25.0044 4.09815 25.0036 4.91903V16.0801C25.0043 16.901 24.7776 17.7062 24.3481 18.4073C23.9189 19.1083 23.3039 19.6779 22.5703 20.0535C22.4098 20.1322 22.2336 20.1741 22.0547 20.1763L22.0547 20.1765Z" fill="white"/>
<path d="M14.9118 14.9642C14.7106 14.9642 14.5131 14.9101 14.3399 14.808L10.976 12.799C10.5477 12.5436 10.0459 12.438 9.55031 12.4985C9.05473 12.5591 8.59342 12.7828 8.24005 13.1338L6.73756 14.6406C6.45298 14.9236 6.0385 15.0342 5.65001 14.9306C5.26131 14.8269 4.95794 14.525 4.85382 14.1381C4.7497 13.7514 4.86083 13.3389 5.14516 13.0556L6.65893 11.6158C7.366 10.9138 8.2881 10.4666 9.27947 10.3453C10.2706 10.2239 11.2741 10.4355 12.1311 10.9462L15.495 12.9439C15.7468 13.1241 15.9125 13.4001 15.9525 13.7063C15.9923 14.0125 15.9032 14.3214 15.706 14.5598C15.509 14.7982 15.2214 14.9445 14.9118 14.9642L14.9118 14.9642Z" fill="white"/>
<path d="M14.9098 6.59311C14.9098 7.51764 14.1567 8.26728 13.2279 8.26728C12.299 8.26728 11.5459 7.51764 11.5459 6.59311C11.5459 5.66859 12.299 4.91895 13.2279 4.91895C14.1567 4.91895 14.9098 5.66859 14.9098 6.59311Z" fill="white"/>
</svg>
