<svg width="27" height="27" viewBox="0 0 27 27" fill="none" xmlns="http://www.w3.org/2000/svg">
<mask id="path-1-inside-1_2_3433" fill="white">
<path d="M22.7302 15.2838C22.1898 14.8612 21.9377 14.1861 21.9377 13.5V13.5V13.5C21.9377 12.8139 22.1898 12.1388 22.7302 11.7162L24.2327 10.5413C24.4464 10.3725 24.5027 10.0688 24.3677 9.82125L22.1177 5.92875C22.0164 5.74875 21.8252 5.6475 21.6227 5.6475C21.5552 5.6475 21.4877 5.65875 21.4314 5.68125L19.6519 6.39593C19.0187 6.65021 18.3081 6.5357 17.7185 6.19231V6.19231C17.1278 5.84828 16.6693 5.28822 16.5723 4.61157L16.3014 2.7225C16.2677 2.4525 16.0314 2.25 15.7502 2.25H11.2502C10.9689 2.25 10.7327 2.4525 10.6989 2.7225L10.4291 4.60412C10.3314 5.28539 9.86835 5.85161 9.27509 6.20049V6.20049C8.6902 6.54445 7.98568 6.65183 7.35603 6.39896L5.56894 5.68125C5.50144 5.65875 5.43394 5.6475 5.36644 5.6475C5.17519 5.6475 4.98394 5.74875 4.88269 5.92875L2.63269 9.82125C2.48644 10.0688 2.55394 10.3725 2.76769 10.5413L4.27017 11.7162C4.81061 12.1388 5.06269 12.8139 5.06269 13.5V13.5V13.5C5.06269 14.1861 4.81061 14.8612 4.27017 15.2838L2.76769 16.4588C2.55394 16.6275 2.49769 16.9313 2.63269 17.1788L4.88269 21.0713C4.98394 21.2513 5.17519 21.3525 5.37769 21.3525C5.44519 21.3525 5.51269 21.3413 5.56894 21.3188L7.34849 20.6041C7.98165 20.3498 8.69223 20.4643 9.28183 20.8077V20.8077C9.87253 21.1517 10.331 21.7118 10.428 22.3884L10.6989 24.2775C10.7327 24.5475 10.9689 24.75 11.2502 24.75H15.7502C16.0314 24.75 16.2677 24.5475 16.3014 24.2775L16.5713 22.3959C16.6689 21.7146 17.132 21.1484 17.7253 20.7995V20.7995C18.3102 20.4556 19.0147 20.3482 19.6443 20.601L21.4314 21.3188C21.4989 21.3413 21.5664 21.3525 21.6339 21.3525C21.8252 21.3525 22.0164 21.2513 22.1177 21.0713L24.3677 17.1788C24.5027 16.9313 24.4464 16.6275 24.2327 16.4588L22.7302 15.2838ZM19.6314 12.6788C19.6764 13.0275 19.6877 13.2638 19.6877 13.5C19.6877 13.7363 19.6652 13.9838 19.6314 14.3213V14.3213C19.5342 15.1059 19.8538 15.8912 20.4752 16.38V16.38L21.0676 16.8408C21.4244 17.1183 21.5216 17.6165 21.2952 18.0077V18.0077C21.07 18.3971 20.5927 18.5618 20.1752 18.3941L19.4739 18.1125V18.1125C18.7481 17.8194 17.916 17.9331 17.2914 18.405V18.405C16.8077 18.765 16.3464 19.035 15.8852 19.2263V19.2263C15.1487 19.525 14.6241 20.1943 14.5127 20.9813V20.9813L14.4027 21.7239C14.3366 22.1698 13.9539 22.5 13.5031 22.5V22.5C13.0498 22.5 12.6657 22.1662 12.6025 21.7173L12.4989 20.9813V20.9813C12.3875 20.1943 11.8629 19.525 11.1264 19.2263V19.2263C10.6427 19.0238 10.1927 18.765 9.74268 18.4275V18.4275C9.1109 17.9415 8.26505 17.8241 7.52643 18.1238V18.1238L6.82514 18.4054C6.40766 18.573 5.93042 18.4084 5.70513 18.019V18.019C5.47881 17.6277 5.576 17.1295 5.93275 16.852L6.52519 16.3913V16.3913C7.14662 15.9025 7.46614 15.1171 7.36894 14.3325V14.3325C7.33519 13.9838 7.31268 13.725 7.31268 13.5C7.31268 13.275 7.33519 13.0163 7.36894 12.6788V12.6788C7.46614 11.8941 7.14662 11.1088 6.52519 10.62V10.62L5.93275 10.1592C5.576 9.88174 5.47881 9.38352 5.70513 8.9923V8.9923C5.93042 8.60288 6.40766 8.43823 6.82514 8.60588L7.52643 8.8875V8.8875C8.25225 9.18062 9.08439 9.06688 9.70893 8.595V8.595C10.1927 8.235 10.6539 7.965 11.1152 7.77375V7.77375C11.8517 7.47498 12.3763 6.8057 12.4877 6.01875V6.01875L12.5985 5.2706C12.6641 4.82787 13.0441 4.5 13.4917 4.5V4.5C13.9417 4.5 14.3231 4.83142 14.3858 5.27708L14.4902 6.01875V6.01875C14.6016 6.8057 15.1262 7.47498 15.8627 7.77375V7.77375C16.3464 7.97625 16.7964 8.235 17.2464 8.5725V8.5725C17.8782 9.05849 18.7241 9.17588 19.4627 8.87625V8.87625L20.1602 8.59615C20.5799 8.42762 21.0596 8.59314 21.286 8.98458V8.98458C21.5118 9.37476 21.4175 9.87142 21.0646 10.1518L20.4752 10.62V10.62C19.8538 11.1088 19.5342 11.8941 19.6314 12.6788V12.6788ZM13.5002 9C11.0139 9 9.00018 11.0138 9.00018 13.5C9.00018 15.9863 11.0139 18 13.5002 18C15.9864 18 18.0002 15.9863 18.0002 13.5C18.0002 11.0138 15.9864 9 13.5002 9ZM13.5002 15.75C12.2627 15.75 11.2502 14.7375 11.2502 13.5C11.2502 12.2625 12.2627 11.25 13.5002 11.25C14.7377 11.25 15.7502 12.2625 15.7502 13.5C15.7502 14.7375 14.7377 15.75 13.5002 15.75Z"/>
</mask>
<path d="M22.7302 15.2838C22.1898 14.8612 21.9377 14.1861 21.9377 13.5V13.5V13.5C21.9377 12.8139 22.1898 12.1388 22.7302 11.7162L24.2327 10.5413C24.4464 10.3725 24.5027 10.0688 24.3677 9.82125L22.1177 5.92875C22.0164 5.74875 21.8252 5.6475 21.6227 5.6475C21.5552 5.6475 21.4877 5.65875 21.4314 5.68125L19.6519 6.39593C19.0187 6.65021 18.3081 6.5357 17.7185 6.19231V6.19231C17.1278 5.84828 16.6693 5.28822 16.5723 4.61157L16.3014 2.7225C16.2677 2.4525 16.0314 2.25 15.7502 2.25H11.2502C10.9689 2.25 10.7327 2.4525 10.6989 2.7225L10.4291 4.60412C10.3314 5.28539 9.86835 5.85161 9.27509 6.20049V6.20049C8.6902 6.54445 7.98568 6.65183 7.35603 6.39896L5.56894 5.68125C5.50144 5.65875 5.43394 5.6475 5.36644 5.6475C5.17519 5.6475 4.98394 5.74875 4.88269 5.92875L2.63269 9.82125C2.48644 10.0688 2.55394 10.3725 2.76769 10.5413L4.27017 11.7162C4.81061 12.1388 5.06269 12.8139 5.06269 13.5V13.5V13.5C5.06269 14.1861 4.81061 14.8612 4.27017 15.2838L2.76769 16.4588C2.55394 16.6275 2.49769 16.9313 2.63269 17.1788L4.88269 21.0713C4.98394 21.2513 5.17519 21.3525 5.37769 21.3525C5.44519 21.3525 5.51269 21.3413 5.56894 21.3188L7.34849 20.6041C7.98165 20.3498 8.69223 20.4643 9.28183 20.8077V20.8077C9.87253 21.1517 10.331 21.7118 10.428 22.3884L10.6989 24.2775C10.7327 24.5475 10.9689 24.75 11.2502 24.75H15.7502C16.0314 24.75 16.2677 24.5475 16.3014 24.2775L16.5713 22.3959C16.6689 21.7146 17.132 21.1484 17.7253 20.7995V20.7995C18.3102 20.4556 19.0147 20.3482 19.6443 20.601L21.4314 21.3188C21.4989 21.3413 21.5664 21.3525 21.6339 21.3525C21.8252 21.3525 22.0164 21.2513 22.1177 21.0713L24.3677 17.1788C24.5027 16.9313 24.4464 16.6275 24.2327 16.4588L22.7302 15.2838ZM19.6314 12.6788C19.6764 13.0275 19.6877 13.2638 19.6877 13.5C19.6877 13.7363 19.6652 13.9838 19.6314 14.3213V14.3213C19.5342 15.1059 19.8538 15.8912 20.4752 16.38V16.38L21.0676 16.8408C21.4244 17.1183 21.5216 17.6165 21.2952 18.0077V18.0077C21.07 18.3971 20.5927 18.5618 20.1752 18.3941L19.4739 18.1125V18.1125C18.7481 17.8194 17.916 17.9331 17.2914 18.405V18.405C16.8077 18.765 16.3464 19.035 15.8852 19.2263V19.2263C15.1487 19.525 14.6241 20.1943 14.5127 20.9813V20.9813L14.4027 21.7239C14.3366 22.1698 13.9539 22.5 13.5031 22.5V22.5C13.0498 22.5 12.6657 22.1662 12.6025 21.7173L12.4989 20.9813V20.9813C12.3875 20.1943 11.8629 19.525 11.1264 19.2263V19.2263C10.6427 19.0238 10.1927 18.765 9.74268 18.4275V18.4275C9.1109 17.9415 8.26505 17.8241 7.52643 18.1238V18.1238L6.82514 18.4054C6.40766 18.573 5.93042 18.4084 5.70513 18.019V18.019C5.47881 17.6277 5.576 17.1295 5.93275 16.852L6.52519 16.3913V16.3913C7.14662 15.9025 7.46614 15.1171 7.36894 14.3325V14.3325C7.33519 13.9838 7.31268 13.725 7.31268 13.5C7.31268 13.275 7.33519 13.0163 7.36894 12.6788V12.6788C7.46614 11.8941 7.14662 11.1088 6.52519 10.62V10.62L5.93275 10.1592C5.576 9.88174 5.47881 9.38352 5.70513 8.9923V8.9923C5.93042 8.60288 6.40766 8.43823 6.82514 8.60588L7.52643 8.8875V8.8875C8.25225 9.18062 9.08439 9.06688 9.70893 8.595V8.595C10.1927 8.235 10.6539 7.965 11.1152 7.77375V7.77375C11.8517 7.47498 12.3763 6.8057 12.4877 6.01875V6.01875L12.5985 5.2706C12.6641 4.82787 13.0441 4.5 13.4917 4.5V4.5C13.9417 4.5 14.3231 4.83142 14.3858 5.27708L14.4902 6.01875V6.01875C14.6016 6.8057 15.1262 7.47498 15.8627 7.77375V7.77375C16.3464 7.97625 16.7964 8.235 17.2464 8.5725V8.5725C17.8782 9.05849 18.7241 9.17588 19.4627 8.87625V8.87625L20.1602 8.59615C20.5799 8.42762 21.0596 8.59314 21.286 8.98458V8.98458C21.5118 9.37476 21.4175 9.87142 21.0646 10.1518L20.4752 10.62V10.62C19.8538 11.1088 19.5342 11.8941 19.6314 12.6788V12.6788ZM13.5002 9C11.0139 9 9.00018 11.0138 9.00018 13.5C9.00018 15.9863 11.0139 18 13.5002 18C15.9864 18 18.0002 15.9863 18.0002 13.5C18.0002 11.0138 15.9864 9 13.5002 9ZM13.5002 15.75C12.2627 15.75 11.2502 14.7375 11.2502 13.5C11.2502 12.2625 12.2627 11.25 13.5002 11.25C14.7377 11.25 15.7502 12.2625 15.7502 13.5C15.7502 14.7375 14.7377 15.75 13.5002 15.75Z" fill="white" stroke="#13212D" stroke-width="0.6" mask="url(#path-1-inside-1_2_3433)"/>
</svg>
