<svg width="17" height="17" viewBox="0 0 17 17" fill="none" xmlns="http://www.w3.org/2000/svg">
<path d="M13.9306 0C14.7446 0 15.5253 0.323387 16.101 0.899019C16.6766 1.47465 17 2.25538 17 3.06944V9.4435L12.5148 9.44444L12.3137 9.45106C11.7715 9.48679 11.2486 9.66579 10.7982 9.96977C10.3479 10.2738 9.98633 10.6918 9.75044 11.1813C9.35378 11.2889 8.93822 11.3418 8.50094 11.3418C7.54768 11.3518 6.61514 11.0636 5.83383 10.5173C5.75743 10.4629 5.67098 10.4242 5.57949 10.4034C5.488 10.3827 5.39331 10.3803 5.3009 10.3965C5.20849 10.4126 5.12021 10.447 5.04118 10.4975C4.96215 10.5481 4.89395 10.6138 4.84054 10.6909C4.78713 10.768 4.74956 10.855 4.73003 10.9468C4.7105 11.0385 4.70939 11.1332 4.72676 11.2254C4.74413 11.3176 4.77964 11.4054 4.83123 11.4838C4.88282 11.5621 4.94946 11.6294 5.02728 11.6818C6.0454 12.3925 7.25939 12.7687 8.50094 12.7585C8.71533 12.7585 8.92594 12.7491 9.13467 12.7283L9.44539 12.6905L9.44444 17H3.06944C2.25538 17 1.47465 16.6766 0.899019 16.101C0.323387 15.5253 0 14.7446 0 13.9306V3.06944C0 2.25538 0.323387 1.47465 0.899019 0.899019C1.47465 0.323387 2.25538 0 3.06944 0H13.9306ZM16.3776 11.0689L11.0689 16.3767C11.0042 16.4411 10.9354 16.5014 10.863 16.5571L10.8611 12.5139L10.8668 12.3788C10.8988 11.9899 11.0674 11.6248 11.3427 11.3482C11.6181 11.0716 11.9825 10.9014 12.3713 10.8677L12.5139 10.8611H16.558C16.5023 10.9338 16.4418 11.0028 16.3767 11.0689H16.3776ZM5.66761 4.48611C5.50983 4.48165 5.35276 4.50887 5.20568 4.56617C5.05861 4.62346 4.92451 4.70967 4.81133 4.81969C4.69815 4.92972 4.60819 5.06132 4.54675 5.20671C4.48532 5.35211 4.45367 5.50835 4.45367 5.66619C4.45367 5.82404 4.48532 5.98028 4.54675 6.12567C4.60819 6.27107 4.69815 6.40267 4.81133 6.51269C4.92451 6.62272 5.05861 6.70893 5.20568 6.76622C5.35276 6.82352 5.50983 6.85074 5.66761 6.84628C5.97481 6.83746 6.26646 6.70921 6.48058 6.48876C6.69471 6.26831 6.81443 5.97306 6.81431 5.66574C6.81419 5.35841 6.69423 5.06325 6.47992 4.84298C6.26562 4.6227 5.97387 4.49468 5.66667 4.48611H5.66761ZM11.3343 4.48611C11.1765 4.48165 11.0194 4.50887 10.8723 4.56617C10.7253 4.62346 10.5912 4.70967 10.478 4.81969C10.3648 4.92972 10.2749 5.06132 10.2134 5.20671C10.152 5.35211 10.1203 5.50835 10.1203 5.66619C10.1203 5.82404 10.152 5.98028 10.2134 6.12567C10.2749 6.27107 10.3648 6.40267 10.478 6.51269C10.5912 6.62272 10.7253 6.70893 10.8723 6.76622C11.0194 6.82352 11.1765 6.85074 11.3343 6.84628C11.6415 6.83759 11.9332 6.70944 12.1474 6.48908C12.3616 6.26872 12.4814 5.97352 12.4814 5.66619C12.4814 5.35887 12.3616 5.06367 12.1474 4.8433C11.9332 4.62294 11.6415 4.4948 11.3343 4.48611Z" fill="#FFCC00"/>
</svg>
