<?xml version="1.0" encoding="UTF-8"?>
<svg xmlns="http://www.w3.org/2000/svg" xmlns:xlink="http://www.w3.org/1999/xlink" viewBox="0 0 50 50" width="50px" height="50px">
<g id="surface265583">
<path style=" stroke:none;fill-rule:nonzero;fill:rgb(100%,80.000001%,0%);fill-opacity:1;" d="M 36 5 L 14 5 C 9.027344 5 5 9.027344 5 14 L 5 36 C 5 40.972656 9.027344 45 14 45 L 36 45 C 40.972656 45 45 40.972656 45 36 L 45 14 C 45 9.027344 40.972656 5 36 5 Z M 38.191406 21.253906 C 38.839844 20.976562 39.609375 20.9375 40.261719 21.132812 C 40.53125 21.21875 40.769531 21.328125 41 21.46875 L 41 22.699219 C 40.28125 22.203125 39.449219 22.0625 38.808594 22.410156 C 38.128906 22.78125 37.730469 23.5625 37.75 24.382812 C 37.738281 25.289062 38.039062 26.125 38.671875 26.515625 C 39.230469 26.898438 40.109375 26.898438 41 26.757812 L 41 27.785156 C 40.648438 27.894531 40.28125 27.960938 39.898438 27.996094 C 39.269531 28.046875 38.570312 27.949219 37.949219 27.617188 C 37.320312 27.289062 36.859375 26.722656 36.601562 26.152344 C 36.351562 25.566406 36.261719 24.96875 36.25 24.402344 C 36.21875 23.191406 36.871094 21.832031 38.191406 21.253906 Z M 34 18.011719 C 34.550781 18.011719 35 18.457031 35 19.011719 C 35 19.5625 34.550781 20.011719 34 20.011719 C 33.449219 20.011719 33 19.5625 33 19.011719 C 33 18.457031 33.449219 18.011719 34 18.011719 Z M 34.75 21.011719 L 34.75 28.011719 L 33.25 28.011719 L 33.25 21.011719 Z M 27 26.175781 C 27.640625 26.4375 28.421875 26.707031 29.03125 26.765625 C 29.640625 26.832031 30.308594 26.753906 30.699219 26.542969 C 30.890625 26.425781 30.929688 26.265625 30.929688 26.085938 C 30.929688 25.902344 30.894531 25.800781 30.808594 25.667969 C 30.648438 25.421875 30.210938 25.234375 29.519531 25.070312 C 29.179688 24.972656 28.808594 24.875 28.398438 24.652344 C 27.988281 24.46875 27.15625 23.800781 27.320312 22.664062 C 27.40625 22.054688 28.035156 21.457031 28.921875 21.179688 C 29.949219 20.855469 31.070312 21.015625 32 21.460938 L 32 22.699219 C 31.171875 22.273438 30.179688 22.058594 29.339844 22.339844 C 29.089844 22.414062 28.761719 22.589844 28.761719 22.902344 C 28.761719 23.652344 29.628906 23.796875 29.960938 23.902344 C 30.300781 24.007812 30.671875 24.105469 31.070312 24.308594 C 31.46875 24.503906 32.273438 24.988281 32.273438 26.09375 C 32.273438 27.148438 31.75 27.539062 31.320312 27.714844 C 30.429688 28.101562 29.640625 28.03125 28.871094 27.925781 C 28.21875 27.808594 27.589844 27.617188 27 27.25 Z M 20.25 21.011719 L 21.75 21.011719 L 21.753906 23.429688 C 21.765625 24.21875 21.765625 25.082031 21.757812 25.8125 C 21.722656 26.203125 22.15625 26.660156 22.730469 26.730469 C 23.039062 26.765625 23.265625 26.738281 23.617188 26.589844 C 23.824219 26.507812 24.039062 26.4375 24.25 26.363281 L 24.25 21.011719 L 25.75 21.011719 L 25.75 27.828125 L 24.25 27.828125 L 24.25 27.59375 C 24.210938 27.613281 24.171875 27.640625 24.128906 27.660156 C 23.75 27.886719 23.136719 28.046875 22.617188 28.003906 C 22.074219 27.96875 21.527344 27.777344 21.082031 27.417969 C 20.640625 27.0625 20.308594 26.503906 20.265625 25.886719 C 20.238281 25.007812 20.242188 24.253906 20.253906 23.429688 Z M 9.25 21.011719 L 10.75 21.011719 L 10.75 21.699219 C 11.121094 21.5625 11.488281 21.425781 11.859375 21.296875 C 12.394531 21.105469 13.066406 21.144531 13.59375 21.4375 C 13.808594 21.554688 14 21.71875 14.167969 21.90625 C 14.730469 21.699219 15.292969 21.488281 15.859375 21.296875 C 16.394531 21.105469 17.0625 21.144531 17.589844 21.4375 C 18.121094 21.722656 18.535156 22.246094 18.683594 22.855469 C 18.722656 23.007812 18.738281 23.160156 18.75 23.316406 L 18.753906 23.632812 L 18.757812 24.257812 L 18.753906 25.507812 L 18.75 28.007812 L 17.25 28.007812 L 17.242188 23.164062 C 17.203125 22.738281 16.726562 22.367188 16.226562 22.503906 C 15.714844 22.636719 15.199219 22.757812 14.6875 22.882812 C 14.722656 23.023438 14.738281 23.167969 14.75 23.316406 L 14.753906 23.632812 L 14.757812 24.257812 L 14.753906 25.507812 L 14.75 28.007812 L 13.25 28.007812 L 13.242188 23.164062 C 13.203125 22.738281 12.726562 22.367188 12.226562 22.503906 C 11.734375 22.632812 11.242188 22.746094 10.75 22.867188 L 10.75 28.007812 L 9.25 28.007812 C 9.25 28.007812 9.25 21.011719 9.25 21.011719 Z M 38.769531 33.933594 C 36.554688 35.503906 34.078125 36.535156 31.484375 37.210938 C 28.886719 37.871094 26.1875 38.121094 23.496094 37.9375 C 20.808594 37.757812 18.183594 37.101562 15.710938 36.144531 C 13.242188 35.152344 10.914062 33.882812 8.851562 32.214844 C 8.746094 32.125 8.730469 31.96875 8.816406 31.859375 C 8.894531 31.765625 9.023438 31.742188 9.128906 31.796875 L 9.144531 31.804688 C 11.390625 33.023438 13.796875 33.953125 16.210938 34.695312 C 18.644531 35.386719 21.117188 35.882812 23.609375 35.984375 C 26.09375 36.070312 28.605469 35.875 31.058594 35.367188 C 33.5 34.863281 35.964844 34.128906 38.230469 33.085938 L 38.269531 33.070312 C 38.519531 32.953125 38.816406 33.0625 38.929688 33.3125 C 39.035156 33.535156 38.960938 33.796875 38.769531 33.933594 Z M 39.882812 36.890625 C 39.605469 37.101562 39.324219 37.03125 39.464844 36.683594 C 39.882812 35.5625 40.785156 33.179688 40.367188 32.621094 C 39.882812 31.992188 37.382812 32.339844 36.269531 32.480469 C 35.921875 32.480469 35.921875 32.199219 36.199219 31.992188 C 37.171875 31.289062 38.492188 31.011719 39.605469 31.011719 C 40.714844 31.011719 41.6875 31.222656 41.898438 31.570312 C 42.242188 31.988281 41.757812 35.28125 39.882812 36.890625 Z M 39.882812 36.890625 "/>
</g>
</svg>
