<?xml version="1.0" encoding="UTF-8"?>
<svg xmlns="http://www.w3.org/2000/svg" xmlns:xlink="http://www.w3.org/1999/xlink" viewBox="0 0 50 50" width="50px" height="50px">
<g id="surface270192">
<path style=" stroke:none;fill-rule:nonzero;fill:rgb(100%,80.000001%,0%);fill-opacity:1;" d="M 14 3.992188 C 8.484375 3.992188 4 8.476562 4 13.992188 L 4 35.992188 C 4 41.503906 8.484375 45.992188 14 45.992188 L 32 45.992188 L 32 45.964844 C 33.828125 48.40625 36.734375 50 40 50 C 45.5 50 50 45.5 50 40 C 50 36.734375 48.40625 33.828125 45.964844 32 L 46 32 L 46 13.988281 C 46 8.476562 41.515625 3.988281 36 3.988281 Z M 14 5.992188 L 36 5.992188 C 40.410156 5.992188 44 9.578125 44 13.992188 L 44 30.847656 C 42.773438 30.304688 41.421875 30 40 30 C 35.433594 30 31.566406 33.105469 30.378906 37.308594 C 29.085938 38.246094 27.898438 39.289062 26.9375 40.328125 C 26.359375 40.96875 26.828125 42 27.6875 42 L 30.199219 42 C 30.34375 42.691406 30.5625 43.355469 30.839844 43.988281 L 14 43.988281 C 9.589844 43.988281 6 40.402344 6 35.988281 L 6 13.988281 C 6 9.578125 9.589844 5.988281 14 5.988281 Z M 14 8 C 10.6875 8 8 10.6875 8 14 L 8 17.503906 C 8 17.882812 8.210938 18.238281 8.558594 18.394531 C 13.210938 20.480469 20.660156 30.761719 21.898438 42 L 25.097656 42 C 26.3125 29.890625 38.34375 22.226562 41.328125 21.082031 C 41.726562 20.933594 42 20.566406 42 20.140625 L 42 14 C 42 10.6875 39.3125 8 36 8 L 29.402344 8 C 28.800781 8 28.335938 8.519531 28.410156 9.117188 C 29.121094 14.800781 28.988281 26.167969 23 39 C 23 29.566406 17.660156 14.800781 14.542969 8.335938 C 14.441406 8.125 14.230469 8 14 8 Z M 40 32 C 44.398438 32 48 35.601562 48 40 C 48 44.398438 44.398438 48 40 48 C 35.601562 48 32 44.398438 32 40 C 32 35.601562 35.601562 32 40 32 Z M 9.109375 33.953125 C 8.515625 33.882812 8 34.359375 8 34.957031 L 8 36 C 8 39.3125 10.6875 42 14 42 L 19.308594 42 C 20.175781 42 20.644531 40.964844 20.054688 40.328125 C 17.347656 37.390625 12.828125 34.398438 9.109375 33.953125 Z M 44.613281 35 C 44.574219 35 44.542969 35.003906 44.542969 35.003906 C 44.542969 35.003906 38.746094 36.203125 38.347656 36.304688 C 38.097656 36.355469 37.996094 36.503906 37.996094 36.753906 L 37.996094 41.242188 C 37.996094 41.691406 38.097656 41.992188 36.996094 41.992188 C 35.800781 41.992188 35 42.738281 35 43.488281 C 35 43.988281 35.199219 44.988281 36.746094 44.988281 C 38.296875 44.988281 38.996094 44.039062 38.996094 43.488281 L 38.996094 39.203125 C 38.996094 38.902344 39.046875 38.804688 39.195312 38.753906 C 39.347656 38.753906 42.945312 37.851562 43.59375 37.703125 C 43.996094 37.601562 43.992188 37.703125 43.992188 38.054688 L 43.992188 40.257812 C 43.992188 40.707031 44.09375 41.007812 42.996094 41.007812 C 41.796875 41.007812 40.996094 41.757812 40.996094 42.507812 C 40.996094 43.007812 41.195312 44.007812 42.746094 44.007812 C 44.296875 44.007812 44.992188 43.058594 44.992188 42.507812 L 44.992188 35.507812 C 44.992188 35.054688 44.742188 35 44.613281 35 Z M 44.613281 35 "/>
</g>
</svg>
