<?xml version="1.0" encoding="UTF-8"?>
<svg xmlns="http://www.w3.org/2000/svg" xmlns:xlink="http://www.w3.org/1999/xlink" viewBox="0 0 48 48" width="48px" height="48px">
<g id="surface271545">
<path style=" stroke:none;fill-rule:nonzero;fill:rgb(100%,80.000001%,0%);fill-opacity:1;" d="M 24 4 C 12.925781 4 4 12.921875 4 24 C 4 35.078125 12.925781 44 24 44 C 35.078125 44 44 35.078125 44 24 C 44 12.921875 35.078125 4 24 4 Z M 24 4 "/>
<path style=" stroke:none;fill-rule:nonzero;fill:rgb(100%,100%,100%);fill-opacity:1;" d="M 31.746094 33.914062 C 31.453125 33.914062 31.160156 33.769531 30.871094 33.621094 C 28.09375 32.015625 24.730469 31.140625 21.078125 31.140625 C 19.03125 31.140625 16.984375 31.429688 15.085938 31.867188 C 14.792969 31.867188 14.355469 32.015625 14.207031 32.015625 C 13.476562 32.015625 13.039062 31.429688 13.039062 30.84375 C 13.039062 30.113281 13.476562 29.675781 14.0625 29.53125 C 16.398438 28.945312 18.738281 28.652344 21.222656 28.652344 C 25.316406 28.652344 29.117188 29.675781 32.332031 31.578125 C 32.769531 31.867188 33.0625 32.160156 33.0625 32.890625 C 32.914062 33.476562 32.332031 33.914062 31.746094 33.914062 Z M 33.792969 28.945312 C 33.355469 28.945312 33.0625 28.800781 32.769531 28.652344 C 29.703125 26.753906 25.460938 25.582031 20.640625 25.582031 C 18.300781 25.582031 16.109375 25.875 14.5 26.316406 C 14.0625 26.460938 13.914062 26.460938 13.625 26.460938 C 12.746094 26.460938 12.160156 25.730469 12.160156 25 C 12.160156 24.121094 12.601562 23.683594 13.332031 23.390625 C 15.523438 22.808594 17.714844 22.367188 20.785156 22.367188 C 25.753906 22.367188 30.578125 23.539062 34.378906 25.875 C 34.960938 26.167969 35.253906 26.753906 35.253906 27.335938 C 35.253906 28.214844 34.671875 28.945312 33.792969 28.945312 Z M 36.132812 23.101562 C 35.695312 23.101562 35.546875 22.953125 35.109375 22.808594 C 31.601562 20.761719 26.339844 19.59375 21.222656 19.59375 C 18.59375 19.59375 15.960938 19.886719 13.625 20.46875 C 13.332031 20.46875 13.039062 20.617188 12.601562 20.617188 C 11.578125 20.761719 10.847656 19.886719 10.847656 18.863281 C 10.847656 17.839844 11.433594 17.253906 12.160156 17.109375 C 14.9375 16.230469 17.863281 15.9375 21.222656 15.9375 C 26.777344 15.9375 32.625 17.109375 37.007812 19.59375 C 37.59375 19.886719 38.03125 20.46875 38.03125 21.347656 C 37.886719 22.367188 37.152344 23.101562 36.132812 23.101562 Z M 36.132812 23.101562 "/>
</g>
</svg>
