<?xml version="1.0" encoding="UTF-8"?>
<svg xmlns="http://www.w3.org/2000/svg" xmlns:xlink="http://www.w3.org/1999/xlink" viewBox="0 0 48 48" width="48px" height="48px">
<g id="surface272470">
<path style=" stroke:none;fill-rule:nonzero;fill:rgb(100%,80.000001%,0%);fill-opacity:1;" d="M 11.359375 4 L 14.316406 14.6875 L 14.316406 19.8125 L 16.878906 19.8125 L 16.878906 14.6875 L 19.875 4 L 17.292969 4 L 16.21875 8.863281 C 15.917969 10.285156 15.726562 11.292969 15.636719 11.894531 L 15.558594 11.894531 C 15.433594 11.050781 15.242188 10.035156 14.976562 8.84375 L 13.941406 4 Z M 22.863281 8.035156 C 21.996094 8.035156 21.296875 8.203125 20.761719 8.550781 C 20.226562 8.894531 19.835938 9.445312 19.582031 10.199219 C 19.332031 10.953125 19.207031 11.953125 19.207031 13.195312 L 19.207031 14.875 C 19.207031 16.105469 19.316406 17.089844 19.535156 17.832031 C 19.753906 18.574219 20.125 19.121094 20.648438 19.472656 C 21.171875 19.824219 21.890625 20 22.804688 20 C 23.695312 20 24.40625 19.828125 24.925781 19.480469 C 25.445312 19.132812 25.824219 18.589844 26.054688 17.84375 C 26.285156 17.097656 26.402344 16.105469 26.402344 14.875 L 26.402344 13.195312 C 26.402344 11.953125 26.285156 10.957031 26.046875 10.210938 C 25.808594 9.464844 25.429688 8.914062 24.914062 8.5625 C 24.398438 8.210938 23.71875 8.035156 22.863281 8.035156 Z M 27.757812 8.261719 L 27.757812 16.890625 C 27.757812 17.957031 27.9375 18.742188 28.300781 19.246094 C 28.664062 19.75 29.230469 20 29.996094 20 C 31.101562 20 31.933594 19.464844 32.484375 18.398438 L 32.539062 18.398438 L 32.765625 19.8125 L 34.800781 19.8125 L 34.800781 8.261719 L 32.203125 8.261719 L 32.203125 17.4375 C 32.101562 17.652344 31.949219 17.828125 31.742188 17.964844 C 31.535156 18.105469 31.320312 18.171875 31.09375 18.171875 C 30.828125 18.171875 30.640625 18.0625 30.527344 17.84375 C 30.414062 17.625 30.355469 17.253906 30.355469 16.738281 L 30.355469 8.261719 Z M 22.804688 9.824219 C 23.167969 9.824219 23.425781 10.015625 23.570312 10.398438 C 23.714844 10.78125 23.785156 11.390625 23.785156 12.21875 L 23.785156 15.816406 C 23.785156 16.671875 23.714844 17.289062 23.570312 17.664062 C 23.425781 18.039062 23.171875 18.226562 22.808594 18.230469 C 22.445312 18.230469 22.191406 18.039062 22.054688 17.664062 C 21.914062 17.289062 21.847656 16.671875 21.847656 15.816406 L 21.847656 12.21875 C 21.847656 11.390625 21.917969 10.78125 22.0625 10.398438 C 22.207031 10.015625 22.453125 9.824219 22.804688 9.824219 Z M 10 22 C 7.800781 22 6 23.800781 6 26 L 6 40 C 6 42.199219 7.800781 44 10 44 L 38 44 C 40.199219 44 42 42.199219 42 40 L 42 26 C 42 23.800781 40.199219 22 38 22 Z M 24.097656 26 L 26.210938 26 L 26.210938 31.136719 L 26.226562 31.136719 C 26.417969 30.765625 26.6875 30.464844 27.039062 30.238281 C 27.390625 30.011719 27.769531 29.898438 28.171875 29.898438 C 28.691406 29.898438 29.097656 30.035156 29.394531 30.3125 C 29.691406 30.589844 29.90625 31.035156 30.039062 31.648438 C 30.171875 32.265625 30.234375 33.117188 30.234375 34.210938 L 30.234375 35.753906 L 30.238281 35.753906 C 30.238281 37.207031 30.0625 38.273438 29.710938 38.957031 C 29.359375 39.640625 28.816406 39.984375 28.074219 39.984375 C 27.660156 39.984375 27.285156 39.890625 26.945312 39.699219 C 26.605469 39.507812 26.351562 39.246094 26.179688 38.917969 L 26.132812 38.917969 L 25.910156 39.839844 L 24.097656 39.839844 Z M 10.972656 26.492188 L 17.476562 26.492188 L 17.476562 28.261719 L 15.296875 28.261719 L 15.296875 39.839844 L 13.152344 39.839844 L 13.152344 28.261719 L 10.972656 28.261719 Z M 34.195312 29.902344 C 34.949219 29.902344 35.527344 30.039062 35.929688 30.316406 C 36.332031 30.59375 36.617188 31.023438 36.78125 31.605469 C 36.945312 32.191406 37.027344 32.996094 37.027344 34.023438 L 37.027344 35.695312 L 33.355469 35.695312 L 33.355469 36.191406 C 33.355469 36.816406 33.371094 37.285156 33.410156 37.597656 C 33.449219 37.910156 33.523438 38.140625 33.640625 38.28125 C 33.757812 38.425781 33.9375 38.496094 34.179688 38.496094 C 34.507812 38.496094 34.734375 38.367188 34.855469 38.113281 C 34.976562 37.859375 35.042969 37.4375 35.054688 36.84375 L 36.949219 36.953125 C 36.960938 37.039062 36.964844 37.15625 36.964844 37.304688 C 36.964844 38.207031 36.714844 38.878906 36.222656 39.324219 C 35.730469 39.769531 35.035156 39.992188 34.132812 39.992188 C 33.050781 39.992188 32.292969 39.652344 31.855469 38.972656 C 31.417969 38.292969 31.203125 37.246094 31.203125 35.824219 L 31.203125 34.121094 C 31.203125 32.65625 31.429688 31.589844 31.878906 30.914062 C 32.328125 30.238281 33.101562 29.902344 34.195312 29.902344 Z M 16.820312 30.089844 L 19.019531 30.089844 L 19.019531 37.25 C 19.019531 37.683594 19.066406 37.996094 19.164062 38.179688 C 19.261719 38.367188 19.417969 38.457031 19.640625 38.457031 C 19.832031 38.457031 20.015625 38.398438 20.191406 38.28125 C 20.367188 38.164062 20.492188 38.015625 20.578125 37.835938 L 20.578125 30.089844 L 22.777344 30.089844 L 22.777344 39.839844 L 21.054688 39.839844 L 20.867188 38.644531 L 20.816406 38.644531 C 20.347656 39.546875 19.648438 40 18.714844 40 C 18.066406 40 17.59375 39.789062 17.285156 39.363281 C 16.976562 38.9375 16.820312 38.273438 16.820312 37.375 Z M 34.148438 31.386719 C 33.914062 31.386719 33.742188 31.457031 33.628906 31.59375 C 33.515625 31.730469 33.441406 31.957031 33.40625 32.269531 C 33.367188 32.582031 33.351562 33.054688 33.351562 33.691406 L 33.351562 34.390625 L 34.957031 34.390625 L 34.957031 33.691406 C 34.957031 33.066406 34.9375 32.59375 34.894531 32.269531 C 34.855469 31.945312 34.777344 31.71875 34.664062 31.585938 C 34.550781 31.453125 34.382812 31.386719 34.148438 31.386719 Z M 27.183594 31.457031 C 26.972656 31.457031 26.777344 31.539062 26.597656 31.710938 C 26.417969 31.882812 26.289062 32.097656 26.214844 32.363281 L 26.214844 37.898438 C 26.3125 38.070312 26.4375 38.195312 26.589844 38.28125 C 26.742188 38.367188 26.90625 38.410156 27.089844 38.410156 C 27.324219 38.410156 27.507812 38.328125 27.644531 38.15625 C 27.78125 37.984375 27.882812 37.699219 27.941406 37.296875 C 28 36.894531 28.027344 36.335938 28.027344 35.625 L 28.027344 34.371094 C 28.027344 33.605469 28.003906 33.019531 27.957031 32.605469 C 27.910156 32.191406 27.824219 31.894531 27.703125 31.71875 C 27.582031 31.542969 27.40625 31.457031 27.183594 31.457031 Z M 27.183594 31.457031 "/>
</g>
</svg>
